<svg xmlns="http://www.w3.org/2000/svg" width="196" height="151" viewBox="0 0 196 151"><g transform="translate(-318 -1582)"><rect width="172" height="126" rx="8" transform="translate(342 1582)" fill="#1d77ff"/><rect width="158" height="98" rx="3" transform="translate(349 1589)" fill="#fff"/><rect width="68" height="104" rx="6" transform="translate(318 1629)" fill="#1d77ff"/><rect width="15" height="3" rx="1.5" transform="translate(344 1635)" fill="#fff"/><circle cx="3" cy="3" r="3" transform="translate(349 1723)" fill="#fff"/><circle cx="3.5" cy="3.5" r="3.5" transform="translate(428 1694)" fill="#fff"/><rect width="58" height="79" transform="translate(323 1642)" fill="#fff"/><path d="M2,0H74a2,2,0,0,1,2,2V9a0,0,0,0,1,0,0H0A0,0,0,0,1,0,9V2A2,2,0,0,1,2,0Z" transform="translate(395 1723)" fill="#1d77ff"/><path d="M2,0H31a2,2,0,0,1,2,2V9a0,0,0,0,1,0,0H0A0,0,0,0,1,0,9V2A2,2,0,0,1,2,0Z" transform="translate(414 1715)" fill="#1d77ff"/></g></svg>