<svg xmlns="http://www.w3.org/2000/svg" width="141.482" height="150.466" viewBox="0 0 141.482 150.466"><g transform="translate(-889.01 -1578)"><g transform="translate(962.67 1578)" fill="#fff" stroke="#1d77ff" stroke-width="9"><ellipse cx="25.376" cy="23.55" rx="25.376" ry="23.55" stroke="none"/><ellipse cx="25.376" cy="23.55" rx="20.876" ry="19.05" fill="none"/></g><g transform="translate(945.345 1628.159)" fill="#fff" stroke="#1d77ff" stroke-width="9"><path d="M35,0H50.149a35,35,0,0,1,35,35V63.5a15,15,0,0,1-15,15H15a15,15,0,0,1-15-15V35A35,35,0,0,1,35,0Z" stroke="none"/><path d="M35,4.5H50.149A30.5,30.5,0,0,1,80.649,35V63.5A10.5,10.5,0,0,1,70.149,74H15A10.5,10.5,0,0,1,4.5,63.5V35A30.5,30.5,0,0,1,35,4.5Z" fill="none"/></g><ellipse cx="25.376" cy="23.55" rx="25.376" ry="23.55" transform="translate(906.334 1599.807)" fill="#1d77ff"/><path d="M35,0H50.149a35,35,0,0,1,35,35V63.5a15,15,0,0,1-15,15H15a15,15,0,0,1-15-15V35A35,35,0,0,1,35,0Z" transform="translate(889.009 1649.966)" fill="#1d77ff"/></g></svg>